<?xml version="1.0" encoding="utf-8"?>
<!-- Generator: Adobe Illustrator 18.1.1, SVG Export Plug-In . SVG Version: 6.00 Build 0)  -->
<svg version="1.1" id="Layer_1" xmlns="http://www.w3.org/2000/svg" xmlns:xlink="http://www.w3.org/1999/xlink" x="0px" y="0px"
	 viewBox="0 343 595.3 155" enable-background="new 0 343 595.3 155" xml:space="preserve">
<path fill="#222222" d="M0,344.5h42.5c10.5,0,18.7,2.9,23.9,8.1c4.2,4.2,6.3,9.3,6.3,15.6v0.2c0,10.4-5.5,16.1-12,19.8
	c10.6,4,17.1,10.2,17.1,22.5v0.1c0,16.7-13.6,25.1-34.2,25.1H0V344.5z M38.1,381.5c8.9,0,14.5-2.9,14.5-9.6v-0.4
	c0-6-4.6-9.4-13.2-9.4H19.6v19.3h18.5V381.5z M43.5,418.3c8.9,0,14.3-3.1,14.3-9.9v-0.2c0-6.2-4.5-9.9-14.9-9.9H19.6v20.1h23.8
	V418.3z M84.9,390.5v-0.2c0-26,20.5-47.3,48.7-47.3S182,364,182,390v0.2c0,26-20.5,47.3-48.7,47.3S84.9,416.5,84.9,390.5z
	 M161,390.5v-0.2c0-15.7-11.5-28.7-27.7-28.7c-16.2,0-27.4,12.9-27.4,28.5v0.2c0,15.7,11.5,28.7,27.7,28.7S161,406.2,161,390.5z
	 M393.8,344.5H414v91.4h-20.1V344.5z M433.5,344.5h68.9v17.9h-48.9v18.6h43.1v17.9h-43.1V418h49.6v17.9h-69.6V344.5z M254.3,344.5
	v56.3l-42.9-56.3h-27.9l9.3,12.1v79.2h19.9V379l43.3,56.9h18.1v-91.4H254.3z M355,344.5v56.3l-42.9-56.3h-27.9l9.3,12.1v79.2h19.9
	V379l43.3,56.9h18.1v-91.4H355z M535.5,362.7h20c9.8,0,15.8,4.4,15.8,13.1v0.2c0,7.7-5.6,13-15.4,13h-20.4l35.8,47h23.8L571,404.2
	c12.3-4.3,20.6-14,20.6-29.2v-0.2c0-8.6-2.7-15.8-7.9-21c-6-6-15-9.3-26.7-9.3h-41.8v91.4h20.1v-73.2H535.5z M26.4,461.5
	c0,1.8-0.4,3.3-1.1,4.8c-0.7,1.4-1.7,2.5-2.9,3.5c-1.2,1-2.6,1.5-4,2c-1.4,0.5-3,0.6-4.6,0.6H9.9v10.4c0,0.6,0.1,1.1,0.2,1.4
	c0.2,0.5,0.6,0.7,1.2,1c0.2,0.1,0.8,0.2,1.5,0.4s1.4,0.1,2,0.1v1.7H0.1v-1.7c0.4,0,1-0.1,1.7-0.1c0.7-0.1,1.2-0.2,1.5-0.4
	c0.5-0.2,0.8-0.5,1.1-1c0.2-0.4,0.4-1,0.4-1.5V458c0-0.6-0.1-1.1-0.2-1.5c-0.1-0.5-0.6-0.8-1.2-1.1c-0.6-0.2-1.2-0.4-1.8-0.5
	c-0.6,0-1.1,0-1.5-0.1v-1.7h15.7c3.2,0,5.8,0.7,7.7,2.3C25.4,456.9,26.4,459,26.4,461.5z M19,467.4c0.6-0.8,1-1.5,1.1-2.4
	c0.1-0.8,0.2-1.5,0.2-2.3c0-1-0.1-1.9-0.4-2.9c-0.2-1-0.6-1.8-1.1-2.5c-0.6-0.7-1.3-1.3-2.3-1.8s-2-0.6-3.5-0.6H9.9v15.1h2.5
	c1.8,0,3.1-0.2,4.3-0.8C17.7,468.9,18.6,468.2,19,467.4z M55,486.9l-7.7,0.5l-0.4-0.4v-3h-0.1c-0.4,0.4-0.8,0.8-1.3,1.3
	c-0.5,0.5-1.1,0.8-1.7,1.2c-0.7,0.5-1.4,0.7-2.1,1c-0.7,0.2-1.7,0.4-2.9,0.4c-2.1,0-3.7-0.7-4.8-2c-1.1-1.4-1.7-3.3-1.7-6v-11.4
	c0-0.6-0.1-1.1-0.4-1.4c-0.2-0.4-0.6-0.7-1-1.1c-0.2-0.2-0.7-0.4-1.1-0.5c-0.5-0.1-1-0.1-1.4-0.2v-1.5l8-0.6l0.4,0.4V480
	c0,1.8,0.4,3,1.2,3.9c0.7,0.8,1.7,1.3,2.7,1.3c0.8,0,1.7-0.1,2.4-0.4c0.7-0.2,1.3-0.6,1.8-1c0.5-0.4,0.8-0.7,1.2-1.1
	c0.4-0.4,0.6-0.7,0.7-1.1v-13.5c0-0.5-0.1-1-0.4-1.4c-0.2-0.4-0.6-0.7-1-1.1c-0.2-0.2-0.7-0.4-1.3-0.4s-1.2-0.1-1.9-0.1v-1.5
	l8.7-0.6l0.4,0.4v18.9c0,0.6,0.1,1.1,0.4,1.4c0.2,0.4,0.6,0.7,1,1c0.2,0.1,0.6,0.2,1.1,0.4c0.4,0,0.8,0.1,1.3,0.1v1.5H55z
	 M80.5,475.5c0,3.6-1.1,6.5-3.3,9c-2.3,2.4-4.9,3.7-7.9,3.7c-1.3,0-2.6-0.2-3.8-0.6c-1.3-0.4-2.5-1-3.6-1.7l-1.8,2.7l-1.5-0.4
	c0.1-1.2,0.1-2.6,0.1-4.3c0-1.7,0-3.3,0-4.9v-23.6c0-0.6-0.1-1.1-0.4-1.7s-0.6-1-1-1.2c-0.4-0.2-0.8-0.4-1.5-0.5
	c-0.7-0.1-1.3-0.1-1.8-0.2v-1.5l8.7-0.5l0.4,0.4v15.7h0.1c1-1.1,2.1-1.9,3.3-2.4s2.4-0.8,3.5-0.8c3,0,5.4,1.2,7.4,3.5
	C79.5,468.7,80.5,471.8,80.5,475.5z M75.4,475.6c0-1.2-0.1-2.4-0.4-3.7c-0.2-1.2-0.7-2.4-1.2-3.2c-0.6-1-1.3-1.7-2.1-2.3
	c-0.8-0.6-1.9-0.8-3.2-0.8c-1.1,0-2.1,0.2-3,0.7c-0.8,0.5-1.5,1.1-2.3,1.8v13.8c0.1,0.4,0.2,0.8,0.6,1.3c0.2,0.5,0.7,1,1.2,1.4
	s1.1,0.8,1.7,1.1c0.6,0.2,1.3,0.5,2.3,0.5c1.9,0,3.6-1,4.8-2.9C74.8,481.5,75.4,478.9,75.4,475.6z M93.3,487.4H81.7v-1.5
	c0.4,0,0.7-0.1,1.2-0.1s0.7-0.1,1.1-0.2c0.5-0.1,0.8-0.4,1.1-0.7c0.2-0.4,0.4-0.8,0.4-1.4v-27.6c0-0.6-0.1-1.1-0.4-1.7
	c-0.2-0.5-0.6-1-1-1.2c-0.2-0.2-0.8-0.4-1.5-0.5c-0.7-0.1-1.4-0.2-1.9-0.2v-1.5l8.9-0.5l0.4,0.4v32.7c0,0.6,0.1,1.1,0.4,1.4
	c0.2,0.4,0.6,0.6,1.1,0.8c0.4,0.1,0.7,0.2,1.1,0.4c0.4,0.1,0.7,0.1,1.2,0.1v1.4H93.3z M107.3,487.4H95.7v-1.5c0.4,0,0.7-0.1,1.2-0.1
	c0.4,0,0.7-0.1,1.1-0.2c0.5-0.1,0.8-0.4,1-0.7c0.2-0.4,0.4-0.8,0.4-1.4v-14.6c0-0.5-0.1-1-0.4-1.4c-0.2-0.5-0.6-0.8-1-1.1
	c-0.4-0.2-0.7-0.4-1.3-0.5c-0.6-0.1-1.1-0.2-1.5-0.2v-1.5l8.5-0.5l0.4,0.4v19.4c0,0.6,0.1,1.1,0.4,1.4c0.2,0.4,0.6,0.6,1.1,0.8
	c0.4,0.1,0.7,0.2,1.1,0.4c0.4,0.1,0.7,0.1,1.1,0.2v1.3H107.3z M104.2,453.9c0,1-0.4,1.7-1,2.4c-0.6,0.7-1.3,1.1-2.3,1.1
	c-0.8,0-1.5-0.4-2.1-1c-0.6-0.6-1-1.4-1-2.3c0-0.8,0.4-1.7,1-2.3c0.6-0.7,1.3-1,2.1-1c1,0,1.7,0.4,2.3,1
	C103.9,452.4,104.2,453.1,104.2,453.9z M125.2,475.7c0.7,0.6,1.2,1.2,1.5,2c0.4,0.7,0.5,1.7,0.5,2.7c0,2.3-0.8,4-2.5,5.4
	c-1.7,1.4-3.8,2.1-6.4,2.1c-1.4,0-2.6-0.2-3.8-0.7c-1.2-0.5-2-1-2.5-1.4l-0.5,1.5h-1.8l-0.2-8.3h1.7c0.1,0.6,0.4,1.3,0.8,2.3
	c0.5,0.8,1,1.5,1.5,2.3s1.4,1.3,2.3,1.8c0.8,0.5,1.9,0.7,3,0.7c1.5,0,2.7-0.4,3.6-1.1c0.8-0.7,1.3-1.7,1.3-3c0-0.7-0.1-1.3-0.4-1.8
	c-0.2-0.5-0.7-1-1.2-1.3s-1.2-0.7-1.9-1c-0.7-0.2-1.7-0.6-2.6-0.8c-0.7-0.2-1.5-0.5-2.5-1c-1-0.4-1.7-0.8-2.4-1.4s-1.3-1.3-1.8-2
	c-0.5-0.8-0.7-1.8-0.7-2.9c0-1.9,0.7-3.6,2.1-5c1.4-1.3,3.3-2,5.8-2c1,0,1.9,0.1,2.9,0.4c1,0.2,1.8,0.5,2.4,0.8l0.6-1.3h1.8l0.4,7.6
	h-1.7c-0.4-1.7-1.1-3.1-2.1-4.2c-1.1-1.1-2.5-1.7-4-1.7c-1.3,0-2.4,0.4-3.1,1c-0.7,0.7-1.2,1.4-1.2,2.4c0,0.7,0.1,1.3,0.4,1.8
	s0.6,1,1.1,1.2c0.5,0.4,1.1,0.6,1.8,1c0.7,0.2,1.7,0.6,2.7,1c1.1,0.4,2,0.7,3,1.2C123.8,474.6,124.7,475.1,125.2,475.7z
	 M155.4,487.4h-11.7v-1.5c0.4,0,0.8-0.1,1.2-0.1c0.5,0,0.8-0.1,1.1-0.2c0.5-0.1,0.8-0.4,1-0.7c0.2-0.4,0.4-0.8,0.4-1.4v-12.3
	c0-1.7-0.4-3-1.2-3.9s-1.8-1.4-3-1.4c-0.8,0-1.7,0.1-2.4,0.4c-0.7,0.2-1.3,0.6-1.9,1c-0.6,0.4-1,0.8-1.3,1.2
	c-0.2,0.4-0.5,0.7-0.7,1.1V483c0,0.6,0.1,1,0.4,1.3c0.2,0.4,0.6,0.6,1,0.8c0.4,0.1,0.7,0.2,1.1,0.4c0.4,0.1,0.8,0.1,1.2,0.1v1.5
	h-11.7v-1.3c0.4,0,0.7-0.1,1.2-0.1c0.4,0,0.7-0.1,1-0.2c0.5-0.1,0.8-0.4,1-0.7c0.2-0.4,0.4-0.8,0.4-1.4v-27.7c0-0.6-0.1-1.1-0.4-1.7
	s-0.6-1-1-1.2c-0.2-0.2-0.8-0.4-1.5-0.5c-0.7-0.1-1.3-0.1-1.8-0.2v-1.5l8.8-0.5l0.4,0.4V467h0.1c0.5-0.5,1.1-1,1.4-1.4
	c0.5-0.4,1-0.8,1.7-1.3c0.6-0.4,1.3-0.7,2.1-1c0.8-0.2,1.8-0.4,2.7-0.4c2.1,0,3.8,0.7,4.9,2c1.2,1.3,1.7,3.3,1.7,5.8v12.4
	c0,0.6,0.1,1.1,0.4,1.3c0.2,0.4,0.6,0.6,1,0.8c0.4,0.1,0.7,0.2,1,0.4c0.4,0.1,0.7,0.1,1.2,0.1v1.5H155.4z M169.3,487.4h-11.5v-1.5
	c0.4,0,0.7-0.1,1.2-0.1c0.4,0,0.7-0.1,1.1-0.2c0.5-0.1,0.8-0.4,1-0.7c0.2-0.4,0.4-0.8,0.4-1.4v-14.6c0-0.5-0.1-1-0.4-1.4
	c-0.2-0.5-0.6-0.8-1-1.1c-0.4-0.2-0.7-0.4-1.3-0.5c-0.6-0.1-1.1-0.2-1.5-0.2v-1.5l8.5-0.5l0.4,0.4v19.4c0,0.6,0.1,1.1,0.4,1.4
	c0.2,0.4,0.6,0.6,1.1,0.8c0.4,0.1,0.7,0.2,1.1,0.4c0.4,0.1,0.7,0.1,1.1,0.2v1.3H169.3z M166.2,453.9c0,1-0.4,1.7-1,2.4
	c-0.6,0.7-1.3,1.1-2.3,1.1c-0.8,0-1.5-0.4-2.1-1c-0.6-0.6-1-1.4-1-2.3c0-0.8,0.4-1.7,1-2.3c0.6-0.7,1.3-1,2.1-1c1,0,1.7,0.4,2.3,1
	C166,452.4,166.2,453.1,166.2,453.9z M198,487.4h-11.7v-1.5c0.4,0,0.8-0.1,1.2-0.1c0.5,0,0.8-0.1,1.1-0.2c0.5-0.1,0.8-0.4,1-0.7
	c0.2-0.4,0.4-0.8,0.4-1.4v-12.3c0-1.7-0.4-3-1.2-3.9s-1.8-1.4-2.9-1.4c-0.8,0-1.7,0.1-2.4,0.4c-0.7,0.2-1.3,0.6-1.9,1
	c-0.5,0.4-1,0.7-1.3,1.2s-0.6,0.7-0.7,1.1V483c0,0.6,0.1,1,0.4,1.3c0.2,0.4,0.6,0.6,1.1,0.8c0.4,0.1,0.7,0.2,1.1,0.4
	c0.4,0.1,0.8,0.1,1.2,0.1v1.5h-11.7v-1.3c0.4,0,0.7-0.1,1.2-0.1c0.4,0,0.7-0.1,1.1-0.2c0.5-0.1,0.8-0.4,1-0.7
	c0.2-0.4,0.4-0.8,0.4-1.4v-14.6c0-0.6-0.1-1.1-0.4-1.5c-0.2-0.5-0.6-0.8-1-1.1c-0.4-0.2-0.7-0.4-1.1-0.5c-0.5-0.1-0.8-0.1-1.3-0.2
	v-1.5l8-0.5l0.4,0.4v3.3h0.1c0.4-0.4,0.8-0.8,1.4-1.4c0.6-0.6,1.1-1,1.7-1.3c0.6-0.4,1.3-0.7,2.1-1c0.8-0.2,1.8-0.4,2.7-0.4
	c2.3,0,3.9,0.7,5.1,2.1c1.1,1.4,1.7,3.3,1.7,5.7v12.4c0,0.6,0.1,1.1,0.2,1.3c0.2,0.4,0.5,0.6,1,0.8c0.4,0.1,0.7,0.2,1,0.4
	c0.2,0.1,0.7,0.1,1.2,0.1L198,487.4L198,487.4z M219.8,484.9c0.6,0.6,1.2,1.3,1.5,2c0.4,0.8,0.6,1.8,0.6,2.9c0,1.2-0.2,2.3-0.7,3.2
	c-0.5,1-1.3,1.9-2.3,2.6c-1.1,0.7-2.4,1.3-3.8,1.8c-1.5,0.4-3.3,0.6-5.6,0.6c-3.6,0-6.3-0.5-8.1-1.5s-2.7-2.6-2.7-4.6
	c0-1.7,0.6-3,1.9-3.9c1.3-1,3-1.4,4.9-1.5v-0.4c-0.5-0.1-1-0.4-1.5-0.6c-0.5-0.2-1-0.5-1.3-0.7c-0.5-0.4-0.7-0.7-1.1-1.2
	c-0.2-0.5-0.4-1.1-0.4-1.7c0-0.8,0.4-1.7,1-2.4c0.6-0.7,1.5-1.3,2.7-1.9v-0.4c-1.5-0.7-2.7-1.7-3.6-2.7c-0.8-1.2-1.3-2.5-1.3-3.9
	c0-2.3,0.8-4,2.5-5.6c1.7-1.4,3.8-2.1,6.4-2.1c0.7,0,1.4,0.1,2.1,0.2c0.7,0.1,1.4,0.4,2.1,0.6h8.3v2.3H216v0.1
	c0.6,0.7,1.1,1.4,1.3,2.3c0.2,0.8,0.5,1.7,0.5,2.5c0,2.1-0.8,3.8-2.5,5.4c-1.7,1.4-3.7,2.1-6,2.1h-3c-0.4,0.1-0.7,0.4-1.2,0.7
	c-0.4,0.4-0.6,0.8-0.6,1.4s0.1,1.1,0.5,1.3c0.4,0.4,0.7,0.5,1.2,0.6c0.5,0.1,1,0.2,1.7,0.2c0.6,0,1.3,0,1.9,0.1
	c0.7,0,1.7,0.1,2.9,0.1c1.2,0.1,2.1,0.1,2.6,0.1c0.7,0,1.4,0.2,2.3,0.5C218.6,483.9,219.2,484.4,219.8,484.9z M218,490.7
	c0-1-0.2-1.7-0.6-2.3c-0.5-0.6-1.1-1-1.9-1.2c-0.5-0.1-1.4-0.1-2.7-0.2c-1.4-0.1-3-0.1-4.9-0.1c-1.8,0.4-3,1-3.7,1.7
	c-0.7,0.8-1.1,1.8-1.1,3.1c0,0.6,0.1,1.1,0.4,1.7c0.2,0.5,0.7,1,1.3,1.4s1.3,0.7,2.3,1.1c1,0.2,2.1,0.4,3.5,0.4
	c2.4,0,4.3-0.5,5.6-1.3C217.3,494,218,492.6,218,490.7z M213.3,470.8c0-1.9-0.4-3.3-1.2-4.5c-0.7-1.1-1.8-1.7-3.2-1.7
	c-0.7,0-1.4,0.1-1.9,0.5c-0.6,0.4-1,0.7-1.3,1.3c-0.4,0.5-0.6,1.2-0.7,1.9c-0.1,0.7-0.2,1.5-0.2,2.3c0,1.8,0.4,3.2,1.2,4.4
	c0.8,1.1,1.8,1.7,3,1.7c1.4,0,2.5-0.6,3.2-1.7C212.9,473.9,213.3,472.5,213.3,470.8z"/>
</svg>
