<?xml version="1.0" encoding="utf-8"?>
<!-- Generator: Adobe Illustrator 18.1.1, SVG Export Plug-In . SVG Version: 6.00 Build 0)  -->
<svg version="1.1" id="Layer_1" xmlns="http://www.w3.org/2000/svg" xmlns:xlink="http://www.w3.org/1999/xlink" x="0px" y="0px"
	 viewBox="0 0 253.4 47.9" enable-background="new 0 0 253.4 47.9" xml:space="preserve">
<path fill="#222222" d="M173.4,0l-15.7,15.7L142,0l-0.7,0.7l-14.6,14.6L112.1,0.7L111.4,0L95.7,15.7L80,0l-0.7,0.7L80,1.4l15,15
	l0.7,0.7l0.7-0.7l15-15L126,16l-15,15l-0.7,0.7l0.7,0.7l15,15l0.7,0.7l0.7-0.7l15-15l0.7-0.7l-0.7-0.7l-15-15L142,1.4l15,15l0.7,0.7
	l0.7-0.7l15-15l0.7-0.7L173.4,0z M141.7,31.7l-15,15l-15-15l15-15L141.7,31.7z"/>
<rect x="173.4" y="0" fill="#222222" width="80" height="1"/>
<rect x="0" fill="#222222" width="80" height="1"/>
</svg>
